<svg width="498" height="81" viewBox="0 0 498 81" fill="none" xmlns="http://www.w3.org/2000/svg">
<path d="M37.2587 59.379L25.0172 36.1837L19.1102 42.3044V59.3779H0V0H19.1102V19.6519L37.6872 0H59.3748L38.1157 22.444L59.8033 59.379H37.2587Z" fill="white"/>
<path d="M107.257 8.3754C112.334 13.9586 114.877 21.6174 114.877 31.3517C114.877 32.8541 114.843 33.9992 114.772 34.7903H74.3937C75.3283 38.0801 76.9365 40.6051 79.2257 42.3568C81.5234 44.1128 84.3113 44.9866 87.6053 44.9866C90.1136 44.9866 92.5243 44.4889 94.8492 43.4842C97.173 42.4836 99.3051 41.0158 101.237 39.0848L111.225 49.0685C108.219 52.4327 104.585 54.9933 100.329 56.7492C96.0729 58.4968 91.2587 59.379 85.885 59.379C79.6637 59.379 74.2198 58.1647 69.5711 55.7267C64.914 53.2886 61.3487 49.8595 58.8845 45.4203C56.4119 40.9812 55.1797 35.8265 55.1797 29.9582C55.1797 24.0167 56.4297 18.7739 58.9368 14.2258C61.4451 9.68189 64.9832 6.17416 69.5711 3.70576C74.1496 1.23735 79.4447 0.00105315 85.4565 0.00105315C94.9016 5.44096e-06 102.172 2.79215 107.257 8.3754ZM96.2992 24.5887C96.2992 21.2245 95.3207 18.5204 93.3457 16.4794C91.3792 14.4395 88.784 13.4212 85.5602 13.4212C82.5543 13.4212 80.0377 14.4259 77.9936 16.4271C75.9579 18.4324 74.6116 21.1501 73.9652 24.5887H96.2992Z" fill="white"/>
<path d="M171.622 8.3754C176.699 13.9586 179.242 21.6174 179.242 31.3517C179.242 32.8541 179.208 33.9992 179.137 34.7903H138.76C139.694 38.0801 141.303 40.6051 143.592 42.3568C145.889 44.1128 148.677 44.9866 151.971 44.9866C154.48 44.9866 156.89 44.4889 159.215 43.4842C161.539 42.4836 163.671 41.0158 165.603 39.0848L175.591 49.0685C172.585 52.4327 168.951 54.9933 164.695 56.7492C160.439 58.4968 155.625 59.379 150.251 59.379C144.03 59.379 138.586 58.1647 133.937 55.7267C129.28 53.2886 125.715 49.8595 123.251 45.4203C120.778 40.9812 119.546 35.8265 119.546 29.9582C119.546 24.0167 120.796 18.7739 123.303 14.2258C125.811 9.68189 129.349 6.17416 133.937 3.70576C138.516 1.23735 143.811 0.00105315 149.823 0.00105315C159.267 5.44096e-06 166.537 2.79215 171.622 8.3754ZM160.665 24.5887C160.665 21.2245 159.687 18.5204 157.712 16.4794C155.745 14.4395 153.15 13.4212 149.926 13.4212C146.92 13.4212 144.404 14.4259 142.36 16.4271C140.324 18.4324 138.978 21.1501 138.331 24.5887H160.665Z" fill="white"/>
<path d="M237.581 6.01595C241.417 10.0224 243.331 15.4265 243.331 22.2293V58.8415H224.325V27.7035C224.325 24.4137 223.425 21.8186 221.643 19.918C219.852 18.0217 217.449 17.0735 214.443 17.0735C211.298 17.1437 208.703 18.183 206.658 20.1883C204.622 22.1936 203.424 24.8412 203.066 28.131V58.8404H183.956V0.751207H203.066V10.2016C205.137 6.83736 207.802 4.29456 211.061 2.57737C214.321 0.860169 218.06 0 222.281 0C228.65 0 233.754 2.00532 237.581 6.01595Z" fill="white"/>
<path d="M297.432 5.53086C301.872 9.2188 304.125 14.3913 304.195 21.0454V58.8415H285.409V52.2965C281.538 57.2249 275.71 59.6975 267.907 59.6975C261.746 59.6975 256.897 58.0369 253.358 54.7083C249.811 51.3787 248.037 46.9971 248.037 41.5532C248.037 36.0444 249.96 31.7488 253.787 28.6695C257.614 25.5935 263.11 24.0167 270.266 23.9465H285.409V23.3C285.409 20.5079 284.456 18.3632 282.56 16.8598C280.664 15.3573 277.929 14.6051 274.346 14.6051C271.908 14.6051 269.174 14.998 266.132 15.7848C263.092 16.5758 260.033 17.7157 256.949 19.2192L251.688 6.3355C256.416 4.19084 260.942 2.59518 265.276 1.56004C269.601 0.52071 274.093 0 278.75 0C286.762 0 292.993 1.84397 297.432 5.53086ZM281.328 44.6157C283.478 43.218 284.832 41.4128 285.409 39.1938V34.148H274.023C268.658 34.148 265.976 36.1491 265.976 40.1598C265.976 42.1651 266.666 43.7555 268.064 44.9352C269.462 46.1192 271.376 46.709 273.814 46.709C276.671 46.709 279.178 46.0102 281.328 44.6157Z" fill="white"/>
<path d="M369.161 0V53.5768C369.161 58.9505 367.832 63.6515 365.185 67.6978C362.537 71.743 358.832 74.8547 354.069 77.0392C349.308 79.2237 343.82 80.3164 337.59 80.3164C332.723 80.3164 328.031 79.6344 323.522 78.2713C319.014 76.9166 315.046 75.0904 311.604 72.8012L318.262 59.5896C320.915 61.3826 323.806 62.7944 326.851 63.7835C329.927 64.7799 333.046 65.286 336.192 65.286C340.491 65.286 343.891 64.2812 346.398 62.2801C348.897 60.2706 350.155 57.5528 350.155 54.11V47.8887C346.284 52.9743 340.779 55.5087 333.614 55.5087C328.826 55.5087 324.544 54.3552 320.787 52.022C317.03 49.6981 314.094 46.4031 311.979 42.1441C309.873 37.8842 308.816 32.9997 308.816 27.4867C308.816 22.047 309.838 17.2547 311.874 13.0995C313.919 8.94849 316.793 5.72888 320.516 3.43544C324.238 1.14619 328.467 0.00104713 333.185 0.00104713C336.768 0.00104713 340.01 0.665295 342.902 1.98855C345.803 3.31286 348.223 5.22598 350.154 7.72896V0H369.161ZM338.447 41.5532C341.96 41.5532 344.783 40.2991 346.931 37.7961C349.081 35.2879 350.155 32.0337 350.155 28.0231C350.155 23.9423 349.08 20.6525 346.931 18.1453C344.782 15.6423 341.96 14.3882 338.447 14.3882C334.944 14.3882 332.095 15.6591 329.919 18.2019C327.734 20.7405 326.641 24.0167 326.641 28.0231C326.641 32.0337 327.734 35.289 329.919 37.7961C332.094 40.3002 334.942 41.5532 338.447 41.5532Z" fill="white"/>
<path d="M378.032 0H397.037V58.0903H378.032V0Z" fill="white"/>
<path d="M432.799 39.0848H428.276C427.362 39.0848 426.486 38.722 425.84 38.0762C425.195 37.4303 424.832 36.5544 424.832 35.641V0.0649563C424.832 0.0477284 424.825 0.0312063 424.813 0.0190243C424.801 0.00684229 424.784 0 424.767 0H405.892C405.875 0 405.859 0.00684229 405.846 0.0190243C405.834 0.0312063 405.827 0.0477284 405.827 0.0649563V49.8993C405.827 54.4233 409.494 58.0903 414.018 58.0903H432.8C432.817 58.0903 432.833 58.0834 432.846 58.0713C432.858 58.0591 432.865 58.0426 432.865 58.0253V39.1498C432.864 39.1325 432.857 39.1159 432.845 39.1038C432.833 39.0916 432.816 39.0848 432.799 39.0848Z" fill="white"/>
<path d="M489.486 8.3754C494.563 13.9586 497.106 21.6174 497.106 31.3517C497.106 32.8541 497.071 33.9992 497.001 34.7903H456.622C457.557 38.0801 459.165 40.6051 461.455 42.3568C463.752 44.1128 466.54 44.9866 469.834 44.9866C472.342 44.9866 474.753 44.4889 477.078 43.4842C479.402 42.4836 481.534 41.0158 483.466 39.0848L493.454 49.0685C490.448 52.4327 486.813 54.9933 482.558 56.7492C478.302 58.4968 473.487 59.379 468.114 59.379C461.892 59.379 456.449 58.1647 451.8 55.7267C447.143 53.2886 443.577 49.8595 441.113 45.4203C438.641 40.9812 437.409 35.8265 437.409 29.9582C437.409 24.0167 438.658 18.7739 441.166 14.2258C443.674 9.68189 447.212 6.17416 451.8 3.70576C456.378 1.23735 461.673 0.00105315 467.685 0.00105315C477.13 5.44096e-06 484.4 2.79215 489.486 8.3754ZM478.528 24.5887C478.528 21.2245 477.549 18.5204 475.575 16.4794C473.609 14.4395 471.014 13.4212 467.789 13.4212C464.783 13.4212 462.266 14.4259 460.221 16.4271C458.186 18.4324 456.839 21.1501 456.193 24.5887H478.528Z" fill="white"/>
</svg>
